<svg xmlns="http://www.w3.org/2000/svg" width="98" height="184" viewBox="0 0 98 184" fill="none"><path d="M14.5495 135.553C21.4922 134.037 27.4773 133.398 33.5422 135.393C42.9588 138.506 49.9015 144.012 51.4975 154.306C52.8541 163.085 49.9813 170.346 42.1607 175.214C33.622 180.481 24.1257 179.683 15.1879 172.98C-3.88459 158.855 -5.24121 127.573 12.7939 109.298C27.5571 94.3756 46.1508 89.9865 66.5799 91.423C74.7197 91.9816 82.8594 94.4554 90.9991 91.1037C77.7521 90.8643 65.7819 84.6398 52.6147 84.0812C34.819 83.2832 18.9386 88.4703 4.25514 98.9243C9.60182 85.3581 16.4647 72.8292 25.9611 61.9763C28.6743 58.864 29.0733 56.7094 27.2379 52.9587C24.6045 47.612 22.6094 36.5995 20.4548 23.1131C19.0982 14.8137 17.6618 5.47697 20.2952 4.43955C22.0508 3.72134 26.1207 8.03061 34.2604 16.5693C36.0161 18.4048 37.3727 19.8412 38.1707 20.7988C41.2031 24.2303 43.5972 27.1829 45.5922 29.6568C52.4551 38.2753 55.8866 42.6644 57.323 46.4948C57.5624 47.1332 58.3604 48.6495 59.5574 50.5647C60.3554 51.7617 61.7919 53.1183 65.7819 55.1932C73.3631 59.1832 79.428 64.6097 82.221 73.1485C83.817 78.0163 88.1263 80.57 92.4356 82.964C94.8296 84.3206 98.2611 84.8792 97.8621 88.6299C97.4631 92.221 95.1488 94.5352 91.9567 96.0514C86.2908 98.6051 80.3856 98.2061 74.4803 97.3282C68.8942 96.5302 63.3879 96.1312 57.722 96.7696C64.1859 100.6 71.1286 103.234 76.2359 109.059C64.0263 103.792 51.7369 100.84 38.8091 105.947C25.8015 111.134 18.2204 121.029 14.5495 135.553Z" fill="url(#paint0_linear_1715_1410)"></path><path d="M38.8888 105.946C44.6345 103.632 50.3004 102.994 55.8067 103.393C52.3752 102.275 48.7842 101.717 45.0335 101.637C25.2428 101.477 9.12295 117.438 8.96334 137.228C8.80374 157.019 24.764 173.139 44.5547 173.298C44.6345 173.298 44.7143 173.298 44.7941 173.298C50.6196 168.59 52.6945 161.967 51.4974 154.306C49.9014 144.011 42.9587 138.505 33.5421 135.393C27.557 133.398 21.4921 134.036 14.5494 135.552C18.2203 121.029 25.8014 111.133 38.8888 105.946Z" fill="url(#paint1_linear_1715_1410)"></path><path d="M48.7844 134.435C56.8443 134.755 61.5526 139.463 67.0589 143.613C66.2609 136.51 63.6274 130.844 58.5202 125.498C66.4205 125.338 71.6874 129.089 77.0341 132.999C77.6725 124.939 74.5602 119.433 63.6274 109.059C77.9119 109.697 89.4831 125.657 88.6851 143.613C87.7274 165.717 67.2983 184.63 44.5549 183.433C52.9341 177.368 58.9192 170.506 59.6374 160.291C60.3556 150.236 56.4453 142.096 48.7844 134.435Z" fill="url(#paint2_linear_1715_1410)"></path><path d="M59.7171 43.3028C51.8966 30.0558 46.7095 23.5919 43.2781 20.0806C40.7244 17.4472 38.5698 14.4147 36.0162 11.7813C34.8191 10.5843 32.5847 8.42965 31.2281 4.83859C30.7493 3.56177 29.9513 1.48694 30.7493 0.688928C31.3079 0.0505177 33.3029 0.688928 37.1334 1.96575C38.5698 2.44456 39.8466 2.92336 41.2032 3.64158C42.1609 4.12038 42.7993 4.51939 43.3579 4.9184C43.5175 5.078 44.0761 5.3972 44.7943 6.03561C44.7943 6.03561 45.9913 7.07303 47.0287 8.34985C49.9814 11.6217 55.0089 24.8687 59.7171 43.3028Z" fill="url(#paint3_linear_1715_1410)"></path><path d="M63.5476 109.059C68.176 113.368 71.3681 116.879 73.5227 120.071C78.8694 126.615 82.0615 134.914 81.9817 144.012C81.8221 163.483 66.7396 179.443 47.6671 180.96C46.6297 181.837 45.5125 182.635 44.3953 183.513C67.1386 184.63 87.5678 165.797 88.5254 143.692C89.4032 125.737 77.832 109.697 63.5476 109.059Z" fill="url(#paint4_linear_1715_1410)"></path><path d="M82.0614 144.091C82.1412 134.994 78.9491 126.615 73.6024 120.151C76.5551 124.54 77.4329 128.37 77.0339 132.999C71.6872 129.089 66.5001 125.258 58.52 125.498C63.7071 130.844 66.3405 136.51 67.0587 143.612C61.5525 139.383 56.7644 134.755 48.7842 134.435C56.4452 142.096 60.3554 150.236 59.5574 160.451C58.8392 169.308 54.3703 175.613 47.7468 181.039C66.8193 179.443 81.9018 163.563 82.0614 144.091Z" fill="url(#paint5_linear_1715_1410)"></path><path d="M38.8886 105.946C51.7366 100.839 64.1058 103.792 76.3154 109.059C71.2082 103.153 64.1856 100.52 57.8015 96.7692C63.4674 96.1307 69.0535 96.5298 74.5598 97.3278C79.3479 98.046 84.1359 98.445 88.7644 97.248C88.525 95.5721 88.2058 93.8963 87.8068 92.2205C80.7045 93.8963 73.682 91.9811 66.6595 91.5023C46.9486 90.0659 28.9135 94.1357 14.3896 107.941C15.2675 113.208 17.1827 118.076 19.9757 122.306C24.1254 114.804 30.3499 109.378 38.8886 105.946Z" fill="url(#paint6_linear_1715_1410)"></path><path d="M51.4977 154.306C49.9016 144.012 42.9589 138.506 33.5424 135.393C27.5573 133.398 21.4924 134.037 14.5497 135.553C18.2205 120.949 25.8017 111.134 38.8891 105.947C51.7371 100.839 64.1063 103.792 76.3159 109.059C71.2086 103.154 64.1861 100.52 57.802 96.7694C63.4679 96.131 69.0539 96.53 74.5602 97.328C80.4655 98.2058 86.3708 98.6049 92.0367 96.0512C94.0317 95.1734 95.7076 93.8168 96.745 92.1409C87.7274 77.3777 71.5278 67.4026 52.9341 67.3228C31.5473 67.1631 13.0334 80.091 5.05331 98.5251C19.4175 88.4701 35.0586 83.4426 52.6149 84.1608C65.7023 84.7194 77.7523 90.8641 90.9993 91.1833C82.8596 94.535 74.7198 92.0611 66.5801 91.5025C46.151 90.0661 27.5573 94.4552 12.794 109.378C7.36756 114.884 3.69669 121.588 1.70166 128.61C5.93113 151.034 24.6046 168.351 47.747 170.506C51.2583 166.037 52.4553 160.531 51.4977 154.306Z" fill="url(#paint7_linear_1715_1410)"></path><path d="M20.4549 23.1922C21.8115 31.6512 23.0883 39.0727 24.445 44.8184C29.3128 48.8084 35.5374 51.2025 42.3205 51.2025C47.9065 51.2025 53.0936 49.6863 57.5625 46.973C57.4827 46.7336 57.4029 46.574 57.3231 46.4942C55.8867 42.6637 52.4552 38.3545 45.5923 29.6561C43.5973 27.1823 41.283 24.2296 38.1708 20.7982C37.3728 19.8406 36.0162 18.4042 34.2605 16.5687C26.3602 8.26939 22.2903 4.03992 20.4549 4.43893C19.9761 4.99754 19.5771 5.55615 19.1781 6.11476C18.3003 9.30681 19.4175 16.4889 20.4549 23.1922Z" fill="url(#paint8_linear_1715_1410)"></path><path d="M31.3077 4.83808C32.6643 8.34933 34.8987 10.5838 36.0958 11.7808C38.6494 14.4142 40.804 17.4467 43.3577 20.0801C45.1133 21.8358 47.3477 24.4692 50.1408 28.3795C50.6196 26.6238 50.859 24.7884 50.859 22.953C50.9388 11.3818 42.2404 1.80563 30.9885 0.528809C30.9087 0.528809 30.9087 0.60861 30.8289 0.60861C30.0308 1.56623 30.8289 3.64106 31.3077 4.83808Z" fill="url(#paint9_linear_1715_1410)"></path><defs><linearGradient id="paint0_linear_1715_1410" x1="41.2197" y1="10.1346" x2="46.8945" y2="87.2168" gradientUnits="userSpaceOnUse"><stop stop-color="#5E3794"></stop><stop offset="1" stop-color="#EE518B"></stop></linearGradient><linearGradient id="paint1_linear_1715_1410" x1="42.1841" y1="179.446" x2="32.719" y2="123.898" gradientUnits="userSpaceOnUse"><stop stop-color="#5E3794"></stop><stop offset="1" stop-color="#EE518B"></stop></linearGradient><linearGradient id="paint2_linear_1715_1410" x1="55.0654" y1="176.033" x2="77.593" y2="119.772" gradientUnits="userSpaceOnUse"><stop stop-color="#5E3794"></stop><stop offset="1" stop-color="#EE518B"></stop></linearGradient><linearGradient id="paint3_linear_1715_1410" x1="29.5938" y1="46.9439" x2="50.4013" y2="13.8411" gradientUnits="userSpaceOnUse"><stop stop-color="#5E3794"></stop><stop offset="1" stop-color="#EE518B"></stop></linearGradient><linearGradient id="paint4_linear_1715_1410" x1="97.0464" y1="93.1592" x2="76.9021" y2="129.192" gradientUnits="userSpaceOnUse"><stop stop-color="#5E3794"></stop><stop offset="1" stop-color="#EE518B"></stop></linearGradient><linearGradient id="paint5_linear_1715_1410" x1="97.5849" y1="116.957" x2="27.1233" y2="183.162" gradientUnits="userSpaceOnUse"><stop stop-color="#5E3794"></stop><stop offset="1" stop-color="#EE518B"></stop></linearGradient><linearGradient id="paint6_linear_1715_1410" x1="-2.81386" y1="106.394" x2="116.336" y2="107.206" gradientUnits="userSpaceOnUse"><stop stop-color="#5E3794"></stop><stop offset="1" stop-color="#EE518B"></stop></linearGradient><linearGradient id="paint7_linear_1715_1410" x1="2.32218" y1="167.096" x2="17.1239" y2="146.388" gradientUnits="userSpaceOnUse"><stop stop-color="#5E3794"></stop><stop offset="1" stop-color="#EE518B"></stop></linearGradient><linearGradient id="paint8_linear_1715_1410" x1="17.4102" y1="-14.888" x2="37.8597" y2="37.7454" gradientUnits="userSpaceOnUse"><stop stop-color="#5E3794"></stop><stop offset="1" stop-color="#EE518B"></stop></linearGradient><linearGradient id="paint9_linear_1715_1410" x1="21.6468" y1="-26.6991" x2="69.4343" y2="66.6922" gradientUnits="userSpaceOnUse"><stop stop-color="#5E3794"></stop><stop offset="1" stop-color="#EE518B"></stop></linearGradient></defs></svg>